name processed_emg_signals										
nRows=147										
nColumns=7										
 										
endheader										
time	RGLTMED	RRF	RADDLONG	RST	RTA	RGM				
0.45	0.11356772	0.036913535	0.033812427	0.041265232	0.252463483	0.105036184				
0.451	0.112832982	0.036091844	0.03325724	0.041849968	0.257391645	0.104110124				
0.452	0.112140928	0.03529294	0.032712801	0.042449799	0.262448463	0.103162797				
0.453	0.111490811	0.034516916	0.032179313	0.043064718	0.26762408	0.102194797				
0.454	0.110881862	0.033763844	0.031656965	0.043694705	0.27290856	0.101206751				
0.455	0.110313285	0.033033769	0.03114593	0.04433972	0.278291902	0.100199318				
0.456	0.109784268	0.032326716	0.030646367	0.044999704	0.283764055	0.099173191				
0.457	0.109293976	0.031642685	0.03015842	0.045674583	0.289314934	0.098129096				
0.458	0.108841563	0.030981656	0.029682217	0.046364263	0.294934435	0.097067795				
0.459	0.108426165	0.030343585	0.029217875	0.047068633	0.300612449	0.095990084				
0.46	0.10804691	0.029728407	0.028765493	0.047787562	0.306338875	0.094896793				
0.461	0.107702912	0.029136036	0.028325158	0.048520903	0.312103639	0.093788788				
0.462	0.107393281	0.028566366	0.027896942	0.049268489	0.317896709	0.092666972				
0.463	0.10711712	0.028019271	0.027480904	0.050030138	0.323708102	0.091532281				
0.464	0.106873526	0.027494603	0.02707709	0.050805647	0.329527907	0.090385688				
0.465	0.106661595	0.026992198	0.02668553	0.051594796	0.335346295	0.089228201				
0.466	0.106480423	0.026511871	0.026306243	0.052397347	0.341153534	0.088060864				
0.467	0.106329105	0.026053421	0.025939235	0.053213046	0.346940001	0.086884756				
0.468	0.106206739	0.025616628	0.025584498	0.054041619	0.352696196	0.085700992				
0.469	0.106112427	0.025201256	0.025242013	0.054882776	0.358412758	0.084510722				
0.47	0.106045273	0.024807051	0.024911749	0.05573621	0.364080472	0.083315131				
0.471	0.106004391	0.024433746	0.02459366	0.056601597	0.369690285	0.082115438				
0.472	0.105988899	0.024081058	0.024287693	0.057478597	0.375233319	0.080912897				
0.473	0.105997923	0.023748686	0.023993782	0.058366851	0.38070088	0.079708796				
0.474	0.106030598	0.02343632	0.023711847	0.059265987	0.386084467	0.078504454				
0.475	0.106086068	0.023143635	0.023441802	0.060175617	0.391375789	0.077301227				
0.476	0.106163488	0.022870291	0.023183549	0.061095336	0.39656677	0.0761005				
0.477	0.106262023	0.022615939	0.022936978	0.062024725	0.401649557	0.074903691				
0.478	0.106380849	0.022380217	0.022701972	0.06296335	0.406616536	0.073712249				
0.479	0.106519152	0.022162753	0.022478404	0.063910764	0.411460332	0.072527654				
0.48	0.106676133	0.021963164	0.022266136	0.064866505	0.416173825	0.071351415				
0.481	0.106851001	0.021781057	0.022065025	0.065830099	0.420750149	0.07018507				
0.482	0.10704298	0.021616032	0.021874917	0.066801059	0.425182707	0.069030187				
0.483	0.107251306	0.02146768	0.021695651	0.067778885	0.42946517	0.067888358				
0.484	0.107475225	0.021335582	0.021527057	0.068763066	0.433591487	0.066761205				
0.485	0.107713998	0.021219315	0.021368961	0.06975308	0.437555889	0.065650374				
0.486	0.107966895	0.021118449	0.021221178	0.070748396	0.441352895	0.064557536				
0.487	0.108233202	0.021032546	0.021083519	0.07174847	0.444977313	0.063484385				
0.488	0.108512214	0.020961165	0.020955788	0.07275275	0.448424247	0.062432639				
0.489	0.108803238	0.02090386	0.020837785	0.073760678	0.451689096	0.061404037				
0.49	0.109105593	0.020860181	0.0207293	0.074771686	0.454767562	0.060400339				
0.491	0.10941861	0.020829673	0.020630123	0.075785197	0.457655648	0.059423324				
0.492	0.109741629	0.02081188	0.020540036	0.07680063	0.460349662	0.058474788				
0.493	0.110074003	0.020806344	0.020458817	0.077817398	0.462846217	0.057556547				
0.494	0.110415093	0.020812603	0.020386241	0.078834907	0.465142231	0.056670429				
0.495	0.110764272	0.020830197	0.020322077	0.079852561	0.467234929	0.05581828				
0.496	0.111120921	0.020858663	0.020266093	0.080869758	0.469121843	0.055001956				
0.497	0.111484431	0.020897538	0.020218052	0.081885894	0.47080081	0.054223327				
0.498	0.111854202	0.020946362	0.020177715	0.082900362	0.472269971	0.053484272				
0.499	0.112229643	0.021004674	0.02014484	0.083912554	0.473527771	0.052786678				
0.5	0.11261017	0.021072015	0.020119183	0.084921861	0.474572955	0.05213244				
0.501	0.112995207	0.021147928	0.020100499	0.085927671	0.475404568	0.051523458				
0.502	0.113384186	0.021231959	0.02008854	0.086929377	0.476021949	0.050961638				
0.503	0.113776547	0.021323656	0.020083057	0.087926368	0.476424731	0.050448885				
0.504	0.114171734	0.021422573	0.0200838	0.088918038	0.476612835	0.049987106				
0.505	0.1145692	0.021528266	0.02009052	0.089903781	0.476586467	0.049578208				
0.506	0.114968403	0.021640295	0.020102965	0.090882994	0.476346112	0.049224094				
0.507	0.115368806	0.021758227	0.020120885	0.091855078	0.475892533	0.048926661				
0.508	0.115769879	0.021881634	0.020144029	0.092819436	0.47522676	0.048687801				
0.509	0.116171096	0.022010091	0.020172147	0.093775476	0.47435009	0.048509397				
0.51	0.116571936	0.022143182	0.020204989	0.094722611	0.473264076	0.04839332				
0.511	0.116971882	0.022280498	0.020242308	0.095660257	0.471970528	0.048341429				
0.512	0.117370423	0.022421634	0.020283855	0.096587836	0.470471498	0.048355571				
0.513	0.117767051	0.022566194	0.020329385	0.097504778	0.468769281	0.048437573				
0.514	0.118161263	0.022713789	0.020378655	0.098410514	0.466866404	0.048589244				
0.515	0.118552556	0.02286404	0.020431422	0.099304485	0.464765619	0.048812373				
0.516	0.118940436	0.023016572	0.020487446	0.100186136	0.462469901	0.049108727				
0.517	0.119324407	0.023171023	0.020546491	0.101054921	0.459982432	0.049480045				
0.518	0.11970398	0.023327037	0.020608321	0.101910298	0.457306604	0.049928041				
0.519	0.120078667	0.023484266	0.020672705	0.102751735	0.454446002	0.0504544				
0.52	0.120447983	0.023642375	0.020739415	0.103578704	0.451404403	0.051060773				
0.521	0.120811446	0.023801035	0.020808225	0.104390687	0.448185768	0.051748779				
0.522	0.121168576	0.023959929	0.020878914	0.105187173	0.444794228	0.052520001				
0.523	0.121518897	0.024118747	0.020951262	0.105967657	0.441234086	0.053375984				
0.524	0.121861934	0.024277191	0.021025057	0.106731643	0.437509802	0.054318231				
0.525	0.122197213	0.024434974	0.021100088	0.107478645	0.433625987	0.055348203				
0.526	0.122524266	0.024591817	0.021176149	0.108208181	0.429587397	0.056467317				
0.527	0.122842624	0.024747452	0.021253038	0.108919781	0.425398923	0.057676944				
0.528	0.12315182	0.024901623	0.02133056	0.109612982	0.421065586	0.058978402				
0.529	0.123451392	0.025054081	0.02140852	0.110287328	0.416592525	0.060372962				
0.53	0.123740877	0.025204592	0.021486733	0.110942375	0.411984992	0.061861839				
0.531	0.124019816	0.025352929	0.021565016	0.111577685	0.407248345	0.063446193				
0.532	0.124287752	0.025498878	0.021643191	0.11219283	0.402388039	0.065127126				
0.533	0.12454423	0.025642233	0.021721087	0.112787391	0.397409615	0.066905681				
0.534	0.124788797	0.025782802	0.021798536	0.113360959	0.392318699	0.06878284				
0.535	0.125021003	0.025920401	0.021875379	0.113913133	0.387120988	0.070759518				
0.536	0.125240402	0.026054857	0.021951459	0.114443522	0.381822245	0.072836568				
0.537	0.125446547	0.026186008	0.022026627	0.114951747	0.37642829	0.075014775				
0.538	0.125638999	0.026313703	0.022100739	0.115437437	0.370944996	0.077294851				
0.539	0.12581732	0.026437799	0.022173657	0.115900231	0.365378274	0.079677442				
0.54	0.125981074	0.026558166	0.022245248	0.116339779	0.359734073	0.082163116				
0.541	0.126129832	0.026674682	0.022315386	0.116755742	0.354018367	0.084752371				
0.542	0.126263169	0.026787236	0.022383952	0.117147793	0.348237151	0.087445625				
0.543	0.126380662	0.026895726	0.022450831	0.117515614	0.34239643	0.090243219				
0.544	0.126481897	0.027000062	0.022515915	0.117858901	0.336502216	0.093145416				
0.545	0.126566462	0.02710016	0.022579104	0.118177361	0.330560514	0.096152398				
0.546	0.126633954	0.027195948	0.022640301	0.118470712	0.324577324	0.099264262				
0.547	0.126683975	0.027287362	0.022699418	0.118738687	0.318558624	0.102481025				
0.548	0.126716134	0.027374348	0.022756372	0.11898103	0.312510371	0.105802617				
0.549	0.126730049	0.027456859	0.022811086	0.1191975	0.306438488	0.109228884				
0.55	0.126725345	0.027534859	0.022863491	0.119387868	0.300348863	0.112759582				
0.551	0.126701657	0.027608318	0.022913521	0.11955192	0.294247336	0.116394383				
0.552	0.126658629	0.027677216	0.02296112	0.119689458	0.288139697	0.120132866				
0.553	0.126595914	0.02774154	0.023006235	0.119800295	0.282031678	0.123974525				
0.554	0.126513178	0.027801285	0.023048822	0.119884263	0.275928948	0.12791876				
0.555	0.126410097	0.027856455	0.023088842	0.119941209	0.269837105	0.131964883				
0.556	0.126286359	0.027907058	0.023126261	0.119970994	0.26376167	0.136112111				
0.557	0.126141666	0.027953113	0.023161052	0.119973498	0.257708084	0.140359574				
0.558	0.125975734	0.027994642	0.023193194	0.119948617	0.251681701	0.144706305				
0.559	0.12578829	0.028031677	0.023222672	0.119896264	0.245687781	0.14915125				
0.56	0.125579081	0.028064254	0.023249478	0.11981637	0.239731487	0.153693258				
0.561	0.125347865	0.028092417	0.023273606	0.119708883	0.233817879	0.158331088				
0.562	0.12509442	0.028116214	0.02329506	0.119573772	0.227951912	0.163063407				
0.563	0.124818539	0.028135701	0.023313848	0.119411023	0.222138427	0.167888791				
0.564	0.124520034	0.028150937	0.023329982	0.119220641	0.216382149	0.172805721				
0.565	0.124198737	0.028161987	0.02334348	0.11900265	0.210687683	0.17781259				
0.566	0.123854496	0.028168923	0.023354368	0.118757096	0.205059512	0.182907699				
0.567	0.123487182	0.028171818	0.023362673	0.118484041	0.199501989	0.18808926				
0.568	0.123096686	0.028170753	0.023368429	0.118183571	0.194019336	0.193355396				
0.569	0.122682921	0.02816581	0.023371675	0.117855791	0.188615643	0.19870414				
0.57	0.122245822	0.028157077	0.023372455	0.117500824	0.18329486	0.204133439				
0.571	0.121785346	0.028144647	0.023370816	0.117118817	0.1780608	0.209641154				
0.572	0.121301475	0.028128613	0.02336681	0.116709935	0.172917133	0.215225059				
0.573	0.120794214	0.028109073	0.023360495	0.116274366	0.167867382	0.220882846				
0.574	0.120263593	0.02808613	0.02335193	0.115812315	0.162914927	0.226612125				
0.575	0.119709668	0.028059886	0.02334118	0.115324012	0.158062996	0.232410422				
0.576	0.119132518	0.028030449	0.023328312	0.114809703	0.15331467	0.238275185				
0.577	0.118532252	0.027997928	0.0233134	0.114269657	0.148672878	0.244203786				
0.578	0.117909001	0.027962433	0.023296516	0.113704162	0.144140395	0.250193516				
0.579	0.117262926	0.027924079	0.023277741	0.113113526	0.139719843	0.256241597				
0.58	0.116594213	0.02788298	0.023257154	0.112498078	0.135413692	0.262345173				
0.581	0.115903076	0.027839252	0.023234839	0.111858164	0.131224254	0.268501321				
0.582	0.115189755	0.027793014	0.023210884	0.111194151	0.127153689	0.274707049				
0.583	0.114454516	0.027744384	0.023185376	0.110506424	0.123203999	0.280959296				
0.584	0.113697655	0.027693483	0.023158408	0.109795386	0.119377034	0.287254941				
0.585	0.112919492	0.027640431	0.023130071	0.109061459	0.115674485	0.293590797				
0.586	0.112120372	0.02758535	0.02310046	0.108305082	0.112097893	0.29996362				
0.587	0.11130067	0.02752836	0.023069673	0.107526712	0.108648642	0.306370109				
0.588	0.110460782	0.027469585	0.023037806	0.106726821	0.105327965	0.312806908				
0.589	0.109601131	0.027409146	0.023004959	0.1059059	0.10213694	0.319270611				
0.59	0.108722164	0.027347164	0.022971231	0.105064453	0.099076497	0.325757762				
0.591	0.107824351	0.027283761	0.022936724	0.104203001	0.096147415	0.332264859				
0.592	0.106908184	0.027219057	0.022901539	0.10332208	0.093350324	0.33878836				
0.593	0.105974178	0.027153172	0.022865776	0.102422241	0.090685706	0.345324681				
0.594	0.105022867	0.027086225	0.022829539	0.101504046	0.088153899	0.351870201				
0.595	0.104054808	0.027018334	0.022792929	0.100568072	0.085755099	0.358421268				
0.596	0.103070575	0.026949616	0.022756047	0.099614911	0.083489357	0.364974198				
